<svg width="24" height="24" viewBox="0 0 24 24" fill="none" xmlns="http://www.w3.org/2000/svg">
<path d="M9.25 11.75H13M9.25 14.75H13M9.25 17.75H13M16 18.5H18.25C18.8467 18.5 19.419 18.2629 19.841 17.841C20.2629 17.419 20.5 16.8467 20.5 16.25V5.858C20.5 4.723 19.655 3.76 18.524 3.666C18.15 3.63498 17.7756 3.60831 17.401 3.586M11.6 3.586C11.535 3.796 11.5 4.019 11.5 4.25C11.5 4.664 11.836 5 12.25 5H16.75C16.9489 5 17.1397 4.92098 17.2803 4.78033C17.421 4.63968 17.5 4.44891 17.5 4.25C17.5001 4.02491 17.4664 3.80109 17.4 3.586M11.6 3.586C11.742 3.1267 12.0274 2.72493 12.4143 2.43954C12.8011 2.15414 13.2692 2.00011 13.75 2H15.25C16.262 2 17.117 2.668 17.4 3.586M11.6 3.586C11.224 3.609 10.85 3.636 10.476 3.666C9.345 3.76 8.5 4.723 8.5 5.858V8M8.5 8H5.125C4.504 8 4 8.504 4 9.125V20.375C4 20.996 4.504 21.5 5.125 21.5H14.875C15.496 21.5 16 20.996 16 20.375V9.125C16 8.504 15.496 8 14.875 8H8.5ZM7 11.75H7.008V11.758H7V11.75ZM7 14.75H7.008V14.758H7V14.75ZM7 17.75H7.008V17.758H7V17.75Z" stroke="white" stroke-width="1.5" stroke-linecap="round" stroke-linejoin="round"/>
</svg>
